<?xml version="1.0" encoding="UTF-8"?>
<!DOCTYPE svg PUBLIC "-//W3C//DTD SVG 1.1//EN" "http://www.w3.org/Graphics/SVG/1.1/DTD/svg11.dtd">
<!-- Creator: CorelDRAW -->
<svg xmlns="http://www.w3.org/2000/svg" xml:space="preserve" width="43.293mm" height="5.5849mm" version="1.1" style="shape-rendering:geometricPrecision; text-rendering:geometricPrecision; image-rendering:optimizeQuality; fill-rule:evenodd; clip-rule:evenodd"
viewBox="0 0 1802.21 232.49"
 xmlns:xlink="http://www.w3.org/1999/xlink"
 xmlns:xodm="http://www.corel.com/coreldraw/odm/2003">
 <defs>
  <style type="text/css">
   <![CDATA[
    .fil0 {fill:#FEFEFE;fill-rule:nonzero}
   ]]>
  </style>
 </defs>
 <g id="Слой_x0020_1">
  <metadata id="CorelCorpID_0Corel-Layer"/>
  <g id="_1877502338128">
   <path class="fil0" d="M1760.98 3.69l-90.07 107.27 -90.07 -107.27 -37.54 0 0 225.11 22.51 0c9.99,0 15.03,-5 15.03,-15.03l0 -163.53 90.07 107.27 90.07 -107.27 0 163.53c0,9.98 4.99,15.03 15.03,15.03l22.51 0 0 -225.11 -37.54 0z"/>
   <path class="fil0" d="M1490.83 198.8l-161.36 0 0 -67.55 161.36 0 0 -30 -161.36 0 0 -67.55 157.56 0c9.98,0 15.03,-4.99 15.03,-15.03l0 -15.03 -210.14 0 0 225.11 213.89 0 0 -15.03c0,-9.98 -5,-15.03 -15.03,-15.03l0.05 0.1z"/>
   <path class="fil0" d="M1031.21 3.69l0 15.03c0,9.98 4.99,15.03 15.03,15.03l82.52 0 0 195.11 37.55 0 0 -195.11 82.53 0c9.98,0 15.03,-4.99 15.03,-15.03l0 -15.03 -232.66 0 0 0z"/>
   <path class="fil0" d="M945.54 101.24l-90.07 0c-22.52,0 -33.74,-11.23 -33.74,-33.75 0,-22.51 11.23,-33.75 33.74,-33.75l131.3 0c9.98,0 15.03,-4.99 15.03,-15.03l0 -15.03 -153.82 0c-42.54,0 -63.81,21.27 -63.81,63.8 0,42.54 21.27,63.8 63.81,63.8l90.06 0c22.52,0 33.75,11.24 33.75,33.75 0,22.52 -11.23,33.75 -33.75,33.75l-135.1 0c-9.98,0 -15.03,4.99 -15.03,15.03l0 15.03 157.57 0c42.54,0 63.81,-21.27 63.81,-63.8 0,-42.54 -21.27,-63.8 -63.81,-63.8l0.05 0z"/>
   <path class="fil0" d="M735.4 3.69c-9.98,0 -18.45,4.99 -25.94,15.03l-67.22 92.24 -67.23 -92.24c-7.49,-9.98 -15.95,-15.03 -25.94,-15.03l-26.91 0 101.3 138.84 0 86.32 37.54 0 0 -86.32 101.3 -138.84 -26.91 0 0 0z"/>
   <path class="fil0" d="M436.5 101.24l-90.07 0c-22.52,0 -33.75,-11.23 -33.75,-33.75 0,-22.51 11.23,-33.75 33.75,-33.75l131.3 0c9.98,0 15.03,-4.99 15.03,-15.03l0 -15.03 -153.82 0c-42.54,0 -63.8,21.27 -63.8,63.8 0,42.54 21.26,63.8 63.8,63.8l90.07 0c22.52,0 33.75,11.24 33.75,33.75 0,22.52 -11.23,33.75 -33.75,33.75l-135.1 0c-9.99,0 -15.03,4.99 -15.03,15.03l0 15.03 157.56 0c42.54,0 63.81,-21.27 63.81,-63.8 0,-42.54 -21.27,-63.8 -63.81,-63.8l0.06 0z"/>
   <path class="fil0" d="M148.23 3.69l-37.54 0 -105.04 225.11 22.19 0c9.98,0 17.53,-5 22.19,-15.03 34.66,-74.22 34.56,-74.55 79.43,-170.43 47.96,102.44 42.21,90.72 79.43,170.43 4.66,9.98 12.21,15.03 22.19,15.03l22.19 0 -105.04 -225.11 0 0z"/>
   <path class="fil0" d="M148.23 145.46c-5.37,-5.37 -12.8,-8.73 -21.05,-8.73 -8.19,0 -15.69,3.31 -21.05,8.73 -5.37,5.37 -8.73,12.8 -8.73,21.05 0,8.25 3.31,15.68 8.68,21.05 5.37,5.37 12.86,8.73 21.05,8.73 8.19,0 15.68,-3.31 21.05,-8.73 5.37,-5.37 8.73,-12.8 8.73,-21.05 0,-8.2 -3.32,-15.68 -8.73,-21.05l0.05 0z"/>
   <path class="fil0" d="M1670.96 105.31l88.39 -105.26 42.86 0 0 232.39 -26.15 0c-6.02,0 -10.64,-1.63 -13.83,-4.83 -3.21,-3.21 -4.83,-7.81 -4.83,-13.83l0 -153.55 -86.43 102.93 -86.43 -102.93 0 153.55c0,6.02 -1.63,10.63 -4.83,13.83 -3.2,3.2 -7.81,4.83 -13.83,4.83l-26.15 0 0 -232.39 42.86 0 88.39 105.26 -0.01 0z"/>
   <path class="fil0" d="M1762.65 7.32l-91.74 109.27 -91.75 -109.27 -32.23 0 0 217.84 18.87 0c4.02,0 6.89,-0.92 8.68,-2.71 1.79,-1.79 2.71,-4.67 2.71,-8.68l0 -173.51 93.7 111.55 93.7 -111.55 0 173.51c0,4.01 0.92,6.89 2.71,8.68 1.79,1.79 4.67,2.71 8.68,2.71l18.88 0 0 -217.84 -32.23 0 0.01 0z"/>
   <path class="fil0" d="M1333.1 195.16l157.73 0c6.02,0 10.64,1.62 13.83,4.82 3.2,3.21 4.83,7.81 4.83,13.84l0 18.67 -221.16 0 0 -232.39 217.36 0 0 18.61c0,6.02 -1.62,10.64 -4.83,13.84 -3.2,3.2 -7.81,4.82 -13.83,4.82l-153.98 0 0 60.28 161.36 0 0 37.27 -161.36 0 0 60.28 0.05 -0.05z"/>
   <path class="fil0" d="M1490.83 202.43l-164.94 0 0 -74.82 161.37 0 0 -22.73 -161.37 0 0 -74.82 161.2 0c4.01,0 6.89,-0.87 8.68,-2.66 1.79,-1.79 2.71,-4.72 2.71,-8.68l0 -11.39 -202.87 0 0 217.84 206.61 0 0 -11.39c0,-4.02 -0.92,-6.89 -2.71,-8.68 -1.79,-1.79 -4.67,-2.71 -8.68,-2.71l0 0.05z"/>
   <path class="fil0" d="M1027.58 18.66l0 -18.61 239.87 0 0 18.61c0,6.02 -1.63,10.64 -4.83,13.83 -3.21,3.21 -7.81,4.83 -13.83,4.83l-78.94 0 0 195.11 -44.76 0 0 -195.11 -78.89 0c-5.97,0 -10.58,-1.62 -13.83,-4.83 -3.21,-3.26 -4.83,-7.81 -4.83,-13.83l0.05 0z"/>
   <path class="fil0" d="M1034.85 7.32l0 11.39c0,4.02 0.87,6.89 2.66,8.68 1.79,1.79 4.72,2.71 8.68,2.71l86.16 0 0 195.11 30.27 0 0 -195.11 86.17 0c4.01,0 6.89,-0.87 8.68,-2.66 1.79,-1.79 2.71,-4.72 2.71,-8.68l0 -11.4 -225.38 0 0.06 -0.05z"/>
   <path class="fil0" d="M855.48 97.61l90.07 0c22.24,0 39.06,5.69 50.4,17.03 11.34,11.34 17.04,28.16 17.04,50.41 0,22.24 -5.69,39.06 -17.04,50.41 -11.34,11.34 -28.16,17.03 -50.4,17.03l-161.2 0 0 -18.66c0,-6.02 1.63,-10.64 4.83,-13.84 3.2,-3.2 7.81,-4.82 13.84,-4.82l135.1 0c10.25,0 17.85,-2.44 22.74,-7.38 4.93,-4.93 7.37,-12.53 7.37,-22.78 0,-20.08 -10.03,-30.11 -30.11,-30.11l-90.07 0c-22.24,0 -39.06,-5.69 -50.4,-17.04 -11.34,-11.34 -17.04,-28.16 -17.04,-50.4 0,-22.24 5.69,-39.06 17.04,-50.41 11.34,-11.34 28.16,-17.03 50.4,-17.03l157.45 0 0 18.61c0,6.02 -1.62,10.64 -4.82,13.83 -3.2,3.21 -7.81,4.83 -13.83,4.83l-131.3 0c-10.25,0 -17.85,2.44 -22.74,7.38 -4.93,4.94 -7.38,12.53 -7.38,22.79 0,20.07 10.04,30.11 30.11,30.11l-0.06 0.05z"/>
   <path class="fil0" d="M945.54 104.88l-90.07 0c-24.9,0 -37.38,-12.48 -37.38,-37.38 0,-12.26 3.15,-21.54 9.5,-27.89 6.35,-6.35 15.63,-9.5 27.89,-9.5l131.3 0c4.02,0 6.89,-0.92 8.68,-2.71 1.79,-1.79 2.71,-4.66 2.71,-8.68l0 -11.4 -150.19 0c-20.24,0 -35.38,5 -45.25,14.87 -9.92,9.92 -14.87,25.01 -14.87,45.25 0,20.24 4.99,35.38 14.87,45.25 9.93,9.93 25.01,14.87 45.25,14.87l90.06 0c24.91,0 37.39,12.48 37.39,37.38 0,12.27 -3.15,21.55 -9.5,27.9 -6.35,6.35 -15.68,9.49 -27.89,9.49l-135.1 0c-4.02,0 -6.89,0.92 -8.68,2.71 -1.79,1.79 -2.71,4.66 -2.71,8.68l0 11.39 153.98 0c20.24,0 35.38,-4.99 45.25,-14.87 9.93,-9.93 14.87,-25.01 14.87,-45.25 0,-20.24 -5,-35.38 -14.87,-45.25 -9.92,-9.93 -25.01,-14.87 -45.25,-14.87l0 0z"/>
   <path class="fil0" d="M706.54 16.49c8.25,-10.96 17.63,-16.44 28.86,-16.44l34.03 0 -104.83 143.62 0 88.77 -44.76 0 0 -88.77 -104.77 -143.62 34.01 0c5.64,0 10.85,1.42 15.74,4.23 4.72,2.76 9.07,6.84 13.14,12.21l64.34 88.28 64.35 -88.28 -0.11 0z"/>
   <path class="fil0" d="M735.4 7.32c-8.79,0 -16.28,4.51 -23.06,13.56l-70.1 96.2 -70.1 -96.2c-3.47,-4.61 -7.11,-8.03 -10.96,-10.31 -3.74,-2.17 -7.76,-3.26 -12.1,-3.26l-19.75 0 97.83 134.01 0 83.83 30.27 0 0 -83.83 97.83 -134.01 -19.75 0 -0.11 0z"/>
   <path class="fil0" d="M346.43 97.61l90.07 0c22.24,0 39.06,5.69 50.4,17.03 11.34,11.34 17.03,28.16 17.03,50.41 0,22.24 -5.69,39.06 -17.03,50.41 -11.34,11.34 -28.16,17.03 -50.4,17.03l-161.2 0 0 -18.66c0,-6.02 1.63,-10.64 4.83,-13.84 3.2,-3.2 7.81,-4.82 13.83,-4.82l135.11 0c20.07,0 30.11,-10.04 30.11,-30.11 0,-20.07 -10.04,-30.11 -30.11,-30.11l-90.07 0c-44.93,0 -67.39,-22.46 -67.39,-67.44 0,-22.25 5.7,-39.07 17.04,-50.41 11.34,-11.34 28.16,-17.03 50.41,-17.03l157.45 0 0 18.61c0,6.02 -1.62,10.63 -4.83,13.83 -3.2,3.2 -7.81,4.83 -13.84,4.83l-131.3 0c-20.07,0 -30.11,10.04 -30.11,30.11 0,20.07 10.04,30.11 30.11,30.11l-0.11 0.05z"/>
   <path class="fil0" d="M436.5 104.88l-90.07 0c-24.91,0 -37.38,-12.48 -37.38,-37.38 0,-24.91 12.48,-37.38 37.38,-37.38l131.3 0c4.01,0 6.89,-0.87 8.68,-2.66 1.79,-1.79 2.71,-4.72 2.71,-8.68l0 -11.39 -150.18 0c-20.29,0 -35.38,4.94 -45.26,14.87 -9.92,9.92 -14.86,25.01 -14.86,45.3 0,40.1 20.07,60.17 60.17,60.17l90.07 0c24.91,0 37.38,12.48 37.38,37.38 0,24.91 -12.48,37.39 -37.38,37.39l-135.1 0c-4.01,0 -6.89,0.92 -8.68,2.71 -1.79,1.79 -2.71,4.66 -2.71,8.68l0 11.4 153.98 0c20.24,0 35.38,-4.99 45.25,-14.87 9.93,-9.92 14.87,-25.01 14.87,-45.25 0,-20.24 -4.99,-35.38 -14.87,-45.25 -9.92,-9.93 -25.01,-14.87 -45.25,-14.87l-0.05 -0.16z"/>
   <path class="fil0" d="M110.69 0.05l39.83 0c36.08,77.48 72.27,154.96 108.46,232.39l-27.89 0c-5.75,0 -10.79,-1.47 -15.13,-4.4 -4.24,-2.87 -7.71,-7.11 -10.31,-12.7 -16.77,-35.92 -24.14,-51.81 -30.98,-66.57 -10.69,-23.06 -20.46,-44.06 -45.15,-96.85 -23.27,49.7 -34.07,72.98 -45.63,97.88l-30.55 65.54c-2.6,5.59 -6.07,9.87 -10.31,12.7 -4.35,2.93 -9.39,4.4 -15.14,4.4l-27.89 0 108.46 -232.39 2.28 0 -0.05 0z"/>
   <path class="fil0" d="M145.9 7.32l-32.94 0 -101.67 217.84 16.49 0c4.29,0 7.98,-1.03 11.07,-3.15 3.15,-2.11 5.8,-5.37 7.81,-9.77l30.49 -65.54c11.07,-23.77 21.38,-46.06 48.94,-104.88l3.26 -7 3.26 7c29.03,62.07 38.26,81.93 48.45,103.85 8.25,17.75 16.93,36.46 30.98,66.58 2.06,4.4 4.66,7.65 7.81,9.77 3.09,2.11 6.83,3.15 11.06,3.15l16.49 0 -101.67 -217.84 0.16 0z"/>
  </g>
 </g>
</svg>
